<?xml version="1.0" encoding="UTF-8"?>
<svg xmlns="http://www.w3.org/2000/svg" xmlns:xlink="http://www.w3.org/1999/xlink" width="48px" height="48px" viewBox="0 0 48 48" version="1.1">
<defs>
<linearGradient id="linear0" gradientUnits="userSpaceOnUse" x1="231.4614" y1="1084.9277" x2="-426.9566" y2="300.3503" gradientTransform="matrix(0.0440484,0.0160359,-0.0160359,0.0440484,39.4128,-4.942195)">
<stop offset="0" style="stop-color:rgb(0%,0%,0%);stop-opacity:1;"/>
<stop offset="0.1921" style="stop-color:rgb(3.529412%,3.529412%,3.529412%);stop-opacity:1;"/>
<stop offset="0.5054" style="stop-color:rgb(12.941176%,12.941176%,12.941176%);stop-opacity:1;"/>
<stop offset="0.8987" style="stop-color:rgb(28.627451%,28.627451%,28.235294%);stop-opacity:1;"/>
<stop offset="1" style="stop-color:rgb(32.941176%,32.941176%,32.54902%);stop-opacity:1;"/>
</linearGradient>
<linearGradient id="linear1" gradientUnits="userSpaceOnUse" x1="-130.5234" y1="114.9102" x2="445.5524" y2="690.9861" gradientTransform="matrix(0.046875,0,0,0.046875,20.094361,8.581833)">
<stop offset="0" style="stop-color:rgb(0%,0%,0%);stop-opacity:1;"/>
<stop offset="0.4833" style="stop-color:rgb(3.529412%,3.529412%,3.529412%);stop-opacity:0.517647;"/>
<stop offset="1" style="stop-color:rgb(9.411765%,9.411765%,9.411765%);stop-opacity:0;"/>
</linearGradient>
</defs>
<g id="surface1">
<path style=" stroke:none;fill-rule:nonzero;fill:url(#linear0);" d="M 48 24 C 48 37.253906 37.253906 48 24 48 C 10.746094 48 0 37.253906 0 24 C 0 10.746094 10.746094 0 24 0 C 37.253906 0 48 10.746094 48 24 Z M 48 24 "/>
<path style=" stroke:none;fill-rule:nonzero;fill:url(#linear1);" d="M 26.464844 47.878906 L 13.125 34.539062 L 13.070312 34.453125 L 12.613281 16.550781 C 12.613281 16.550781 14.019531 11.554688 19.152344 11.554688 C 24.285156 11.554688 30.878906 11.554688 30.878906 11.554688 C 30.878906 11.554688 33.144531 12.066406 33.566406 12.902344 L 34.335938 12.902344 L 47.878906 26.449219 C 47.878906 26.449219 47.601562 28.644531 47.3125 29.714844 C 47.3125 29.714844 46.730469 31.890625 46.253906 32.984375 C 46.253906 32.984375 45.613281 34.496094 45.214844 35.21875 C 45.214844 35.21875 44.882812 35.867188 44.527344 36.4375 C 44.527344 36.4375 43.949219 37.359375 43.703125 37.707031 C 43.703125 37.707031 43.125 38.507812 42.925781 38.765625 C 42.925781 38.765625 42.425781 39.40625 42.0625 39.808594 C 42.0625 39.808594 41.542969 40.394531 41.230469 40.714844 C 41.230469 40.714844 40.921875 41.039062 40.570312 41.367188 C 40.570312 41.367188 39.484375 42.367188 39.007812 42.738281 C 39.007812 42.738281 37.203125 44.097656 36.355469 44.578125 C 36.355469 44.578125 35.113281 45.308594 34.335938 45.664062 C 34.335938 45.664062 32.777344 46.351562 32.207031 46.550781 C 32.207031 46.550781 31.613281 46.773438 31.121094 46.917969 C 31.121094 46.917969 30.359375 47.152344 29.914062 47.261719 C 29.914062 47.261719 29.433594 47.386719 29.019531 47.472656 C 29.019531 47.472656 28.480469 47.59375 27.949219 47.675781 C 27.949219 47.675781 27.109375 47.804688 26.855469 47.835938 Z M 26.464844 47.878906 "/>
<path style=" stroke:none;fill-rule:nonzero;fill:rgb(100%,100%,100%);fill-opacity:1;" d="M 32.433594 17.089844 C 32.433594 17.945312 31.738281 18.640625 30.878906 18.640625 C 30.023438 18.640625 29.328125 17.945312 29.328125 17.089844 C 29.328125 16.230469 30.023438 15.535156 30.878906 15.535156 C 31.738281 15.535156 32.433594 16.230469 32.433594 17.089844 Z M 32.433594 17.089844 "/>
<path style="fill:none;stroke-width:45;stroke-linecap:butt;stroke-linejoin:miter;stroke:rgb(100%,100%,100%);stroke-opacity:1;stroke-miterlimit:10;" d="M 633.416667 512 C 633.416667 579.083333 579.083333 633.416667 512 633.416667 C 444.916667 633.416667 390.583333 579.083333 390.583333 512 C 390.583333 444.916667 444.916667 390.583333 512 390.583333 C 579.083333 390.583333 633.416667 444.916667 633.416667 512 Z M 633.416667 512 " transform="matrix(0.046875,0,0,0.046875,0,0)"/>
<path style="fill:none;stroke-width:45;stroke-linecap:butt;stroke-linejoin:miter;stroke:rgb(100%,100%,100%);stroke-opacity:1;stroke-miterlimit:10;" d="M 255.333333 612.5 C 255.333333 703.666667 329.25 777.5 420.333333 777.5 L 603.666667 777.5 C 694.75 777.5 768.666667 703.666667 768.666667 612.5 L 768.666667 411.5 C 768.666667 320.333333 694.75 246.5 603.666667 246.5 L 420.333333 246.5 C 329.25 246.5 255.333333 320.333333 255.333333 411.5 Z M 255.333333 612.5 " transform="matrix(0.046875,0,0,0.046875,0,0)"/>
</g>
</svg>
