<?xml version="1.0" encoding="UTF-8"?>
<svg xmlns="http://www.w3.org/2000/svg" xmlns:xlink="http://www.w3.org/1999/xlink" width="48px" height="48px" viewBox="0 0 48 48" version="1.1">
<g id="surface1">
<path style=" stroke:none;fill-rule:nonzero;fill:rgb(0%,0%,0%);fill-opacity:1;" d="M 23.972656 47.683594 C 10.878906 47.683594 0.265625 37.066406 0.265625 23.972656 C 0.265625 10.878906 10.878906 0.265625 23.972656 0.265625 C 37.066406 0.265625 47.683594 10.878906 47.683594 23.972656 C 47.683594 37.066406 37.066406 47.683594 23.972656 47.683594 Z M 23.972656 47.683594 "/>
<path style=" stroke:none;fill-rule:nonzero;fill:rgb(0%,94.901961%,91.764706%);fill-opacity:1;" d="M 21.5625 16.867188 L 21.5625 15.90625 C 21.230469 15.859375 20.894531 15.835938 20.554688 15.832031 C 16.433594 15.832031 13.082031 19.183594 13.082031 23.308594 C 13.082031 25.835938 14.34375 28.070312 16.273438 29.425781 C 14.980469 28.046875 14.265625 26.226562 14.265625 24.339844 C 14.265625 20.277344 17.523438 16.964844 21.5625 16.867188 "/>
<path style=" stroke:none;fill-rule:nonzero;fill:rgb(0%,94.901961%,91.764706%);fill-opacity:1;" d="M 21.738281 27.753906 C 23.578125 27.753906 25.078125 26.289062 25.144531 24.46875 L 25.152344 8.195312 L 28.125 8.195312 C 28.0625 7.851562 28.027344 7.507812 28.027344 7.164062 L 23.96875 7.164062 L 23.964844 23.4375 C 23.894531 25.257812 22.394531 26.722656 20.554688 26.722656 C 20.003906 26.722656 19.460938 26.589844 18.972656 26.332031 C 19.613281 27.222656 20.644531 27.75 21.738281 27.753906 M 33.679688 13.71875 L 33.679688 12.8125 C 32.585938 12.8125 31.515625 12.492188 30.601562 11.898438 C 31.40625 12.820312 32.484375 13.460938 33.679688 13.71875 "/>
<path style=" stroke:none;fill-rule:nonzero;fill:rgb(100%,0%,30.980392%);fill-opacity:1;" d="M 30.601562 11.898438 C 29.707031 10.871094 29.214844 9.558594 29.214844 8.195312 L 28.125 8.195312 C 28.410156 9.714844 29.304688 11.054688 30.601562 11.898438 M 20.554688 19.894531 C 18.671875 19.898438 17.144531 21.421875 17.144531 23.308594 C 17.144531 24.574219 17.847656 25.738281 18.972656 26.328125 C 18.554688 25.75 18.328125 25.054688 18.328125 24.339844 C 18.332031 22.453125 19.859375 20.925781 21.742188 20.921875 C 22.09375 20.921875 22.429688 20.980469 22.746094 21.082031 L 22.746094 16.9375 C 22.414062 16.890625 22.078125 16.867188 21.742188 16.863281 C 21.683594 16.863281 21.625 16.867188 21.566406 16.867188 L 21.566406 20.050781 C 21.238281 19.949219 20.898438 19.894531 20.554688 19.894531 "/>
<path style=" stroke:none;fill-rule:nonzero;fill:rgb(100%,0%,30.980392%);fill-opacity:1;" d="M 33.679688 13.71875 L 33.679688 16.875 C 31.574219 16.875 29.625 16.199219 28.03125 15.058594 L 28.03125 23.308594 C 28.03125 27.429688 24.679688 30.785156 20.554688 30.785156 C 18.964844 30.785156 17.488281 30.28125 16.273438 29.429688 C 17.683594 30.949219 19.664062 31.816406 21.738281 31.816406 C 25.859375 31.816406 29.214844 28.460938 29.214844 24.339844 L 29.214844 16.085938 C 30.859375 17.269531 32.835938 17.90625 34.863281 17.902344 L 34.863281 13.84375 C 34.457031 13.84375 34.0625 13.796875 33.679688 13.71875 "/>
<path style=" stroke:none;fill-rule:nonzero;fill:rgb(100%,100%,100%);fill-opacity:1;" d="M 28.03125 23.308594 L 28.03125 15.054688 C 29.675781 16.238281 31.652344 16.875 33.679688 16.871094 L 33.679688 13.714844 C 32.484375 13.457031 31.40625 12.820312 30.601562 11.894531 C 29.304688 11.050781 28.410156 9.710938 28.125 8.191406 L 25.152344 8.191406 L 25.148438 24.464844 C 25.078125 26.285156 23.578125 27.75 21.742188 27.75 C 20.644531 27.75 19.613281 27.21875 18.972656 26.328125 C 17.851562 25.738281 17.144531 24.574219 17.144531 23.308594 C 17.144531 21.421875 18.671875 19.898438 20.554688 19.894531 C 20.90625 19.894531 21.246094 19.953125 21.5625 20.050781 L 21.5625 16.867188 C 17.523438 16.960938 14.265625 20.277344 14.265625 24.339844 C 14.265625 26.304688 15.027344 28.089844 16.269531 29.425781 C 17.523438 30.308594 19.019531 30.78125 20.554688 30.78125 C 24.679688 30.78125 28.03125 27.429688 28.03125 23.308594 "/>
<path style=" stroke:none;fill-rule:nonzero;fill:rgb(100%,100%,100%);fill-opacity:1;" d="M 11.589844 35.203125 L 15.738281 35.203125 L 15.359375 36.394531 L 14.28125 36.394531 L 14.28125 40.785156 L 12.941406 40.785156 L 12.941406 36.394531 L 11.59375 36.394531 Z M 11.589844 35.203125 "/>
<path style=" stroke:none;fill-rule:nonzero;fill:rgb(100%,100%,100%);fill-opacity:1;" d="M 22.535156 35.203125 L 26.777344 35.203125 L 26.398438 36.394531 L 25.226562 36.394531 L 25.226562 40.785156 L 23.882812 40.785156 L 23.882812 36.394531 L 22.535156 36.394531 Z M 22.535156 35.203125 "/>
<path style=" stroke:none;fill-rule:nonzero;fill:rgb(100%,100%,100%);fill-opacity:1;" d="M 15.992188 36.980469 L 17.324219 36.980469 L 17.324219 40.785156 L 16 40.785156 Z M 15.992188 36.980469 "/>
<path style=" stroke:none;fill-rule:nonzero;fill:rgb(100%,100%,100%);fill-opacity:1;" d="M 17.851562 35.191406 L 19.179688 35.191406 L 19.179688 37.789062 L 20.496094 36.496094 L 22.082031 36.496094 L 20.414062 38.113281 L 22.28125 40.785156 L 20.816406 40.785156 L 19.570312 38.933594 L 19.175781 39.3125 L 19.175781 40.785156 L 17.847656 40.785156 L 17.847656 35.191406 Z M 17.851562 35.191406 "/>
<path style=" stroke:none;fill-rule:nonzero;fill:rgb(100%,100%,100%);fill-opacity:1;" d="M 31.925781 35.191406 L 33.253906 35.191406 L 33.253906 37.789062 L 34.570312 36.496094 L 36.15625 36.496094 L 34.488281 38.113281 L 36.355469 40.785156 L 34.894531 40.785156 L 33.648438 38.933594 L 33.253906 39.3125 L 33.253906 40.785156 L 31.925781 40.785156 Z M 31.925781 35.191406 "/>
<path style=" stroke:none;fill-rule:nonzero;fill:rgb(100%,100%,100%);fill-opacity:1;" d="M 16.65625 36.546875 C 17.027344 36.546875 17.324219 36.246094 17.324219 35.875 C 17.324219 35.507812 17.027344 35.207031 16.65625 35.207031 C 16.289062 35.207031 15.988281 35.507812 15.988281 35.875 C 15.988281 36.246094 16.289062 36.546875 16.65625 36.546875 Z M 16.65625 36.546875 "/>
<path style=" stroke:none;fill-rule:nonzero;fill:rgb(14.509804%,95.686275%,93.333333%);fill-opacity:1;" d="M 26.609375 38.507812 C 26.609375 37.308594 27.53125 36.328125 28.707031 36.238281 C 28.648438 36.230469 28.566406 36.230469 28.507812 36.230469 C 27.25 36.230469 26.230469 37.25 26.230469 38.507812 C 26.230469 39.765625 27.25 40.785156 28.507812 40.785156 C 28.566406 40.785156 28.648438 40.78125 28.707031 40.777344 C 27.535156 40.6875 26.609375 39.703125 26.609375 38.507812 Z M 26.609375 38.507812 "/>
<path style=" stroke:none;fill-rule:nonzero;fill:rgb(99.607843%,17.254902%,33.333333%);fill-opacity:1;" d="M 29.222656 36.230469 C 29.160156 36.230469 29.082031 36.234375 29.023438 36.238281 C 30.195312 36.328125 31.117188 37.308594 31.117188 38.507812 C 31.117188 39.703125 30.195312 40.6875 29.023438 40.777344 C 29.082031 40.78125 29.160156 40.785156 29.222656 40.785156 C 30.480469 40.785156 31.496094 39.765625 31.496094 38.507812 C 31.496094 37.25 30.480469 36.230469 29.222656 36.230469 Z M 29.222656 36.230469 "/>
<path style=" stroke:none;fill-rule:nonzero;fill:rgb(100%,100%,100%);fill-opacity:1;" d="M 28.863281 39.613281 C 28.253906 39.613281 27.757812 39.121094 27.757812 38.507812 C 27.757812 37.894531 28.25 37.398438 28.863281 37.398438 C 29.476562 37.398438 29.96875 37.894531 29.96875 38.507812 C 29.96875 39.121094 29.472656 39.613281 28.863281 39.613281 Z M 28.863281 36.230469 C 27.605469 36.230469 26.589844 37.25 26.589844 38.507812 C 26.589844 39.765625 27.605469 40.785156 28.863281 40.785156 C 30.121094 40.785156 31.140625 39.765625 31.140625 38.507812 C 31.136719 37.25 30.121094 36.230469 28.863281 36.230469 Z M 28.863281 36.230469 "/>
</g>
</svg>
